@startuml
hide methods
left to right direction
skinparam classAttributeIconSize 0


class Company {
  -name
  -location
}




class ClinicalAnalysisLaboratory {
  -laboratoryID
  -name
  -address
  -phoneNumber
  -tinNumber
  -typeOfTestList
}

class TypeOfTest {
  -Designation
}


Company "1" -- "*" ClinicalAnalysisLaboratory : store >
Company"1" -- "*" TypeOfTest : store >
ClinicalAnalysisLaboratory "*" -- "*" TypeOfTest : perform >


@enduml