@startuml
'https://plantuml.com/sequence-diagram

top to bottom direction

Company"1" --- "1..*"Employee : > has
Company"1" -- "*"Client : > has
Company"1" -- "1..*"ClinicalAnalysisLab : > has
LabTechnician"*" -- "1"ClinicalAnalysisLab : > works at
Receptionist"1" -- "*"TestRequest : > register new

Headquarters"1" -- "1"ChemicalLab : > has
Company"1" -left- "1"Headquarters : > owns
Receptionist"1..*" -- "*"Client : > add
Employee <|-- LabTechnician : < is an
Employee <|-- Receptionist : < is an
Employee <|-- LabCoordinator : < is an
Employee <|-- Admin : < is an
Employee <|-- SpecialistDoctor : < is an

Test"1" -- "1"Report : > has
LabTechnician"1" -- "*"Sample : > collect
Sample"1" -- "1"Test : < has
Company"1" -- "1..*"TypeOfTest : > conduct
Company"1" -- "*"Test : > perform
TestRequest"1..*" -- "1""Client" : < does
SpecialistDoctor"1" -- "*"Report : > write
SpecialistDoctor"1..*" -- "1"Headquarters : > works at
Report"1" -- "1"Client : > delivered to
Sample"*" -- "1"ChemicalLab : < owns
LabCoordinator"1" -- "*"Report : > validate

TestRequest"1" -- "1"Test : > originates

TypeOfTest"1" -- "1""Test" : < has

Admin"1..*" -- "*"Category : > create new

Category"1" -- "*"Parameter : < presented under

Test"1" -- "1..*"Parameter : > need to analyse

class Client{
-nhsNumber
-name
-tin
-birthDate
-sex
-phoneNumber
-email
}

class Sample{
-barcode
}

class Report{
-diagnosis
-results
}

class Employee{
-employeeID
-name
-address
-socCode
-phoneNumber
-email
}

class ClinicalAnalysisLab{
-labId
-name
-address
-phoneNumber
-tinNumber
}
class ChemicalLab{
-name
-address
-phoneNumber
-tinNumber
}

class TestRequest{
-requestDate
-testType
}

class Company{
-name
-location
}

class Headquarters{
-location
}

class Test{
-timestampOfSampleCollected
-timestampOfDiagnosis
-timestampOfChemicalAnalysis
-timestampOfValidation
}

class Category{
-nhsId
-internalCode
-description
}

class SpecialistDoctor{
-doctorIndexNumber
}

@enduml