@startuml
'https://plantuml.com/use-case-diagram
hide methods
skinparam classAttributeIconSize 0

class Company{
-designation
}

class Client {
-name
-citizenCardNumber
-nhsNumber
-tinNumber
-birthDate
-sex
-phoneNumber
-email
}

class ClinicalAnalysisTest {
- nhsCode
- client
- typeOfTest
- parameterList
- labWhereCreated
}
class Report {
- createdAt
- reportText
}



Company"1" -- "*"Client :> knows

Company "1" -- "*" ClinicalAnalysisTest :> owns
Client "1" -- "1..*" ClinicalAnalysisTest :> belongs
ClinicalAnalysisTest "1" -- "*" TestStore :> knows
ClinicalAnalysisTest "1" -- "1..*" Report :> knows

@enduml

