@startuml
'https://plantuml.com/sequence-diagram
skinparam classAttributeIconSize 0

class RegisterClientUI
{
}

class RegisterClientController
{
    +newClient(clientDto)
    +saveClient()
}

class Client{
	-name
	-citizenCardNumber
    -nhsNumber
    -tinNumber
    -birthDate
    -sex
    -phoneNumber
    -email
    +client(clientDto)
    +getEmail()
    +getName()
}

class Company{
-name
-location
+getClientStore()
}

class ClientStore{
+newClient(name, citizenCardNumber,nhsNumber, tinNumber, birthDate, sex, phoneNumber, email)
+validateClient(ct)
+saveClient(ct)
+addClient(ct)
}

RegisterClientUI ..> RegisterClientController
RegisterClientController ..> Company
Company"1" -> "1"ClientStore : uses
ClientStore"1" ->"*" Client : store

@enduml